<svg id="visual" viewBox="0 0 960 400" width="960" height="400" xmlns="http://www.w3.org/2000/svg" xmlns:xlink="http://www.w3.org/1999/xlink" version="1.1"><rect x="0" y="0" width="960" height="400" fill="#f7ecec"></rect><path d="M0 241L10.7 239.5C21.3 238 42.7 235 64 238.7C85.3 242.3 106.7 252.7 128 264.3C149.3 276 170.7 289 192 284.8C213.3 280.7 234.7 259.3 256 254.8C277.3 250.3 298.7 262.7 320 268.3C341.3 274 362.7 273 384 278.8C405.3 284.7 426.7 297.3 448 302.5C469.3 307.7 490.7 305.3 512 302.2C533.3 299 554.7 295 576 288.7C597.3 282.3 618.7 273.7 640 273.3C661.3 273 682.7 281 704 283C725.3 285 746.7 281 768 280.7C789.3 280.3 810.7 283.7 832 283.7C853.3 283.7 874.7 280.3 896 272C917.3 263.7 938.7 250.3 949.3 243.7L960 237L960 401L949.3 401C938.7 401 917.3 401 896 401C874.7 401 853.3 401 832 401C810.7 401 789.3 401 768 401C746.7 401 725.3 401 704 401C682.7 401 661.3 401 640 401C618.7 401 597.3 401 576 401C554.7 401 533.3 401 512 401C490.7 401 469.3 401 448 401C426.7 401 405.3 401 384 401C362.7 401 341.3 401 320 401C298.7 401 277.3 401 256 401C234.7 401 213.3 401 192 401C170.7 401 149.3 401 128 401C106.7 401 85.3 401 64 401C42.7 401 21.3 401 10.7 401L0 401Z" fill="#a26ef0"></path><path d="M0 265L10.7 276C21.3 287 42.7 309 64 310.3C85.3 311.7 106.7 292.3 128 289.3C149.3 286.3 170.7 299.7 192 306.7C213.3 313.7 234.7 314.3 256 314.2C277.3 314 298.7 313 320 312.3C341.3 311.7 362.7 311.3 384 314.5C405.3 317.7 426.7 324.3 448 325.8C469.3 327.3 490.7 323.7 512 323.3C533.3 323 554.7 326 576 326.2C597.3 326.3 618.7 323.7 640 312.8C661.3 302 682.7 283 704 283.3C725.3 283.7 746.7 303.3 768 306.5C789.3 309.7 810.7 296.3 832 295.2C853.3 294 874.7 305 896 302.5C917.3 300 938.7 284 949.3 276L960 268L960 401L949.3 401C938.7 401 917.3 401 896 401C874.7 401 853.3 401 832 401C810.7 401 789.3 401 768 401C746.7 401 725.3 401 704 401C682.7 401 661.3 401 640 401C618.7 401 597.3 401 576 401C554.7 401 533.3 401 512 401C490.7 401 469.3 401 448 401C426.7 401 405.3 401 384 401C362.7 401 341.3 401 320 401C298.7 401 277.3 401 256 401C234.7 401 213.3 401 192 401C170.7 401 149.3 401 128 401C106.7 401 85.3 401 64 401C42.7 401 21.3 401 10.7 401L0 401Z" fill="#9458ee"></path><path d="M0 352L10.7 345.2C21.3 338.3 42.7 324.7 64 325.2C85.3 325.7 106.7 340.3 128 338.8C149.3 337.3 170.7 319.7 192 312.5C213.3 305.3 234.7 308.7 256 313.2C277.3 317.7 298.7 323.3 320 323.3C341.3 323.3 362.7 317.7 384 322.3C405.3 327 426.7 342 448 340.2C469.3 338.3 490.7 319.7 512 314.5C533.3 309.3 554.7 317.7 576 317.7C597.3 317.7 618.7 309.3 640 314.5C661.3 319.7 682.7 338.3 704 344.3C725.3 350.3 746.7 343.7 768 343.7C789.3 343.7 810.7 350.3 832 348.8C853.3 347.3 874.7 337.7 896 330.7C917.3 323.7 938.7 319.3 949.3 317.2L960 315L960 401L949.3 401C938.7 401 917.3 401 896 401C874.7 401 853.3 401 832 401C810.7 401 789.3 401 768 401C746.7 401 725.3 401 704 401C682.7 401 661.3 401 640 401C618.7 401 597.3 401 576 401C554.7 401 533.3 401 512 401C490.7 401 469.3 401 448 401C426.7 401 405.3 401 384 401C362.7 401 341.3 401 320 401C298.7 401 277.3 401 256 401C234.7 401 213.3 401 192 401C170.7 401 149.3 401 128 401C106.7 401 85.3 401 64 401C42.7 401 21.3 401 10.7 401L0 401Z" fill="#8441ec"></path><path d="M0 358L10.7 355.7C21.3 353.3 42.7 348.7 64 350.2C85.3 351.7 106.7 359.3 128 365.7C149.3 372 170.7 377 192 371.8C213.3 366.7 234.7 351.3 256 345.7C277.3 340 298.7 344 320 344.5C341.3 345 362.7 342 384 341.7C405.3 341.3 426.7 343.7 448 347.8C469.3 352 490.7 358 512 357.7C533.3 357.3 554.7 350.7 576 348C597.3 345.3 618.7 346.7 640 352C661.3 357.3 682.7 366.7 704 369.8C725.3 373 746.7 370 768 368.8C789.3 367.7 810.7 368.3 832 364.8C853.3 361.3 874.7 353.7 896 355.2C917.3 356.7 938.7 367.3 949.3 372.7L960 378L960 401L949.3 401C938.7 401 917.3 401 896 401C874.7 401 853.3 401 832 401C810.7 401 789.3 401 768 401C746.7 401 725.3 401 704 401C682.7 401 661.3 401 640 401C618.7 401 597.3 401 576 401C554.7 401 533.3 401 512 401C490.7 401 469.3 401 448 401C426.7 401 405.3 401 384 401C362.7 401 341.3 401 320 401C298.7 401 277.3 401 256 401C234.7 401 213.3 401 192 401C170.7 401 149.3 401 128 401C106.7 401 85.3 401 64 401C42.7 401 21.3 401 10.7 401L0 401Z" fill="#7324ea"></path></svg>